<svg width="473" height="95" viewBox="0 0 473 95" fill="none" xmlns="http://www.w3.org/2000/svg">
<path d="M365.1 92L372.55 57H385.55C388.583 57 390.967 57.7 392.7 59.1C394.433 60.4667 395.3 62.3667 395.3 64.8C395.3 66.9667 394.667 68.8667 393.4 70.5C392.167 72.1 390.5 73.2833 388.4 74.05C390 74.6833 391.25 75.6 392.15 76.8C393.05 78 393.5 79.4167 393.5 81.05C393.5 83.1833 392.933 85.0833 391.8 86.75C390.7 88.3833 389.183 89.6667 387.25 90.6C385.317 91.5333 383.083 92 380.55 92H365.1ZM373.05 72.25H383.3C385.733 72.25 387.7 71.6167 389.2 70.35C390.733 69.0833 391.5 67.4333 391.5 65.4C391.5 63.8333 390.917 62.6 389.75 61.7C388.583 60.8 387 60.35 385 60.35H375.6L373.05 72.25ZM369.55 88.65H380.6C382.4 88.65 383.983 88.3333 385.35 87.7C386.717 87.0667 387.783 86.1833 388.55 85.05C389.317 83.8833 389.7 82.5667 389.7 81.1C389.7 79.3333 389.05 77.95 387.75 76.95C386.483 75.95 384.717 75.45 382.45 75.45H372.35L369.55 88.65ZM415.989 92.55C413.656 92.55 411.489 92.1333 409.489 91.3C407.489 90.4667 405.739 89.3 404.239 87.8C402.773 86.3 401.623 84.55 400.789 82.55C399.956 80.5167 399.539 78.3333 399.539 76C399.539 73.3333 400.039 70.8333 401.039 68.5C402.039 66.1333 403.406 64.05 405.139 62.25C406.873 60.45 408.889 59.0333 411.189 58C413.489 56.9667 415.939 56.45 418.539 56.45C420.873 56.45 423.039 56.8667 425.039 57.7C427.039 58.5333 428.773 59.7 430.239 61.2C431.739 62.7 432.906 64.45 433.739 66.45C434.573 68.45 434.989 70.6333 434.989 73C434.989 75.6667 434.489 78.1833 433.489 80.55C432.489 82.8833 431.123 84.95 429.389 86.75C427.656 88.55 425.639 89.9667 423.339 91C421.039 92.0333 418.589 92.55 415.989 92.55ZM416.239 89C418.306 89 420.239 88.5833 422.039 87.75C423.839 86.9167 425.423 85.7833 426.789 84.35C428.156 82.8833 429.223 81.2 429.989 79.3C430.789 77.4 431.189 75.3667 431.189 73.2C431.189 70.7 430.623 68.45 429.489 66.45C428.389 64.45 426.856 62.8833 424.889 61.75C422.956 60.5833 420.756 60 418.289 60C416.256 60 414.323 60.4167 412.489 61.25C410.689 62.0833 409.106 63.2333 407.739 64.7C406.373 66.1333 405.289 67.8 404.489 69.7C403.723 71.6 403.339 73.6333 403.339 75.8C403.339 78.3 403.889 80.55 404.989 82.55C406.123 84.5167 407.656 86.0833 409.589 87.25C411.556 88.4167 413.773 89 416.239 89ZM443.921 92L450.621 60.45H438.221L438.971 57H467.521L466.771 60.45H454.371L447.671 92H443.921Z" fill="black"/>
<path d="M75.5779 70.1805C75.5779 75.5452 74.1616 80.0304 71.329 83.6362C68.5823 87.154 64.8485 89.7924 60.1275 91.5513C55.4066 93.3102 50.2136 94.1897 44.5485 94.1897H0V0.527675H50.8573C55.1491 0.527675 58.84 1.71494 61.9301 4.08947C65.106 6.37606 67.5094 9.3662 69.1402 13.0599C70.8569 16.7536 71.7153 20.5793 71.7153 24.5368C71.7153 28.9341 70.5994 33.1555 68.3677 37.201C66.136 41.1585 62.8743 44.1487 58.5825 46.1714C63.8185 47.7544 67.9385 50.5687 70.9428 54.6142C74.0328 58.6597 75.5779 63.8485 75.5779 70.1805ZM54.0762 65.8272C54.0762 63.8045 53.6899 62.0456 52.9174 60.5505C52.1449 58.9675 51.1148 57.7363 49.8273 56.8568C48.6256 55.8894 47.1664 55.4057 45.4497 55.4057H21.1155V75.853H44.5485C46.351 75.853 47.9389 75.4133 49.3123 74.5339C50.7715 73.6544 51.9303 72.4671 52.7886 70.9721C53.647 69.477 54.0762 67.762 54.0762 65.8272ZM21.1155 18.9962V38.3882H41.8446C43.3897 38.3882 44.806 38.0365 46.0935 37.3329C47.4669 36.6293 48.5827 35.574 49.4411 34.1668C50.2994 32.6718 50.7286 30.8249 50.7286 28.6263C50.7286 26.5156 50.3423 24.7567 49.5698 23.3495C48.8831 21.9424 47.9389 20.8871 46.7373 20.1835C45.5356 19.392 44.1622 18.9962 42.6172 18.9962H21.1155Z" fill="black"/>
<path d="M135.782 94.9812C128.915 94.9812 122.692 93.662 117.113 91.0236C111.619 88.2973 106.855 84.6916 102.821 80.2063C98.8727 75.6332 95.8256 70.5323 93.6797 64.9038C91.5338 59.1874 90.4609 53.295 90.4609 47.2268C90.4609 40.9826 91.5767 35.0463 93.8084 29.4178C96.126 23.7893 99.3019 18.7764 103.336 14.3791C107.456 9.89388 112.306 6.37605 117.885 3.82563C123.465 1.27521 129.559 0 136.168 0C142.949 0 149.086 1.36316 154.58 4.08947C160.159 6.72783 164.923 10.3336 168.871 14.9068C172.906 19.4799 175.996 24.6248 178.142 30.3412C180.287 35.9697 181.36 41.7302 181.36 47.6225C181.36 53.8666 180.244 59.803 178.013 65.4315C175.781 71.06 172.605 76.1169 168.485 80.6021C164.365 84.9994 159.515 88.5172 153.936 91.1556C148.443 93.706 142.391 94.9812 135.782 94.9812ZM111.963 47.4906C111.963 51.0964 112.478 54.6142 113.508 58.0441C114.538 61.386 116.04 64.3761 118.014 67.0145C120.074 69.6529 122.606 71.7636 125.61 73.3466C128.615 74.9296 132.048 75.7211 135.911 75.7211C139.945 75.7211 143.464 74.9296 146.468 73.3466C149.473 71.6756 151.962 69.477 153.936 66.7507C155.91 64.0244 157.369 60.9902 158.314 57.6483C159.344 54.2184 159.859 50.7446 159.859 47.2268C159.859 43.621 159.344 40.1471 158.314 36.8052C157.284 33.4633 155.739 30.4731 153.678 27.8348C151.618 25.1085 149.086 22.9978 146.082 21.5027C143.078 20.0076 139.687 19.2601 135.911 19.2601C131.876 19.2601 128.357 20.0516 125.353 21.6346C122.434 23.2176 119.945 25.3723 117.885 28.0986C115.911 30.737 114.409 33.7711 113.379 37.201C112.435 40.5429 111.963 43.9728 111.963 47.4906Z" fill="black"/>
<path d="M201.287 94.1897V0.527675H222.402V75.1934H266.693V94.1897H201.287Z" fill="black"/>
<path d="M284.327 94.1897V0.527675H318.447C328.49 0.527675 336.858 2.63837 343.554 6.85975C350.335 10.9932 355.442 16.6217 358.875 23.7453C362.309 30.7809 364.025 38.6081 364.025 47.2268C364.025 56.7249 362.137 64.9918 358.36 72.0274C354.583 79.063 349.262 84.5157 342.395 88.3853C335.614 92.2549 327.631 94.1897 318.447 94.1897H284.327ZM342.524 47.2268C342.524 41.7741 341.579 36.9811 339.691 32.8477C337.803 28.6263 335.056 25.3723 331.451 23.0857C327.846 20.7112 323.511 19.5239 318.447 19.5239H305.443V75.1934H318.447C323.597 75.1934 327.932 74.0062 331.451 71.6316C335.056 69.1692 337.803 65.8272 339.691 61.6059C341.579 57.2965 342.524 52.5035 342.524 47.2268Z" fill="black"/>
</svg>
