<svg width="2000" height="2000" viewBox="0 0 2000 2000" fill="none" xmlns="http://www.w3.org/2000/svg">
<rect width="2000" height="2000" fill="white"/>
<path d="M239.85 1147V902H345.9C362 902 376 904.683 387.9 910.05C399.8 915.417 409.017 923 415.55 932.8C422.083 942.367 425.35 953.683 425.35 966.75C425.35 978.65 422.317 989.15 416.25 998.25C410.183 1007.35 401.667 1014.58 390.7 1019.95C404.467 1024.85 415.2 1032.32 422.9 1042.35C430.833 1052.15 434.8 1063.7 434.8 1077C434.8 1091.23 431.3 1103.6 424.3 1114.1C417.533 1124.6 407.733 1132.77 394.9 1138.6C382.3 1144.2 367.483 1147 350.45 1147H239.85ZM276.6 1005.95H343.8C357.567 1005.95 368.533 1002.68 376.7 996.15C384.867 989.617 388.95 980.75 388.95 969.55C388.95 958.35 384.867 949.483 376.7 942.95C368.533 936.417 357.567 933.15 343.8 933.15H276.6V1005.95ZM276.6 1115.85H347.65C363.05 1115.85 375.183 1112.23 384.05 1105C393.15 1097.77 397.7 1087.97 397.7 1075.6C397.7 1063.47 393.15 1053.78 384.05 1046.55C375.183 1039.08 363.05 1035.35 347.65 1035.35H276.6V1115.85ZM588.146 1150.85C570.413 1150.85 553.846 1147.7 538.446 1141.4C523.046 1134.87 509.396 1125.88 497.496 1114.45C485.83 1102.78 476.73 1089.37 470.196 1074.2C463.896 1058.8 460.746 1042.23 460.746 1024.5C460.746 1006.77 463.896 990.317 470.196 975.15C476.73 959.75 485.83 946.333 497.496 934.9C509.396 923.233 523.046 914.25 538.446 907.95C553.846 901.417 570.413 898.15 588.146 898.15C605.88 898.15 622.446 901.417 637.847 907.95C653.48 914.25 667.13 923.233 678.796 934.9C690.463 946.333 699.563 959.75 706.096 975.15C712.63 990.317 715.896 1006.77 715.896 1024.5C715.896 1042.23 712.63 1058.8 706.096 1074.2C699.563 1089.37 690.463 1102.78 678.796 1114.45C667.13 1125.88 653.48 1134.87 637.847 1141.4C622.446 1147.7 605.88 1150.85 588.146 1150.85ZM588.496 1116.9C601.096 1116.9 612.763 1114.57 623.496 1109.9C634.463 1105.23 644.03 1098.82 652.196 1090.65C660.363 1082.25 666.78 1072.45 671.446 1061.25C676.113 1049.82 678.447 1037.57 678.447 1024.5C678.447 1011.2 676.113 998.95 671.446 987.75C666.78 976.55 660.363 966.867 652.196 958.7C644.03 950.3 634.463 943.767 623.496 939.1C612.763 934.433 601.096 932.1 588.496 932.1C575.663 932.1 563.763 934.433 552.796 939.1C541.83 943.767 532.263 950.3 524.096 958.7C515.93 966.867 509.513 976.55 504.846 987.75C500.413 998.95 498.196 1011.08 498.196 1024.15C498.196 1037.45 500.413 1049.82 504.846 1061.25C509.513 1072.45 515.93 1082.25 524.096 1090.65C532.263 1098.82 541.83 1105.23 552.796 1109.9C563.763 1114.57 575.663 1116.9 588.496 1116.9ZM754.596 1147V902H791.346V1114.45H932.396V1147H754.596ZM1006.34 1114.1H1056.74C1069.57 1114.1 1081.47 1111.88 1092.44 1107.45C1103.4 1102.78 1112.97 1096.48 1121.14 1088.55C1129.54 1080.38 1135.95 1070.93 1140.39 1060.2C1145.05 1049.23 1147.39 1037.33 1147.39 1024.5C1147.39 1011.9 1145.05 1000.12 1140.39 989.15C1135.95 978.183 1129.54 968.733 1121.14 960.8C1112.97 952.633 1103.4 946.333 1092.44 941.9C1081.47 937.233 1069.57 934.9 1056.74 934.9H1006.34V1114.1ZM969.586 1147V902H1056.04C1074.47 902 1091.5 905.15 1107.14 911.45C1122.77 917.517 1136.42 926.033 1148.09 937C1159.75 947.967 1168.85 960.917 1175.39 975.85C1181.92 990.783 1185.19 1007 1185.19 1024.5C1185.19 1042.23 1181.92 1058.57 1175.39 1073.5C1169.09 1088.2 1160.1 1101.03 1148.44 1112C1136.77 1122.97 1123 1131.6 1107.14 1137.9C1091.5 1143.97 1074.47 1147 1056.04 1147H969.586Z" fill="black"/>
<path d="M1219.68 1147V902L1254.68 895.35V985.65C1269.62 972.583 1287.7 966.05 1308.93 966.05C1325.73 966.05 1340.9 970.133 1354.43 978.3C1368.2 986.467 1379.05 997.433 1386.98 1011.2C1394.92 1024.97 1398.88 1040.48 1398.88 1057.75C1398.88 1075.02 1394.8 1090.65 1386.63 1104.65C1378.7 1118.42 1367.85 1129.38 1354.08 1137.55C1340.55 1145.72 1325.27 1149.8 1308.23 1149.8C1298.43 1149.8 1288.87 1148.28 1279.53 1145.25C1270.43 1141.98 1262.03 1137.43 1254.33 1131.6V1147H1219.68ZM1304.38 1119.35C1315.82 1119.35 1325.97 1116.67 1334.83 1111.3C1343.93 1105.93 1351.17 1098.7 1356.53 1089.6C1361.9 1080.27 1364.58 1069.77 1364.58 1058.1C1364.58 1046.43 1361.9 1035.93 1356.53 1026.6C1351.17 1017.27 1343.93 1009.92 1334.83 1004.55C1325.97 999.183 1315.82 996.5 1304.38 996.5C1294.35 996.5 1285.02 998.367 1276.38 1002.1C1267.75 1005.83 1260.52 1011.08 1254.68 1017.85V1098.35C1260.52 1104.88 1267.75 1110.02 1276.38 1113.75C1285.25 1117.48 1294.58 1119.35 1304.38 1119.35ZM1516.98 1150.5C1499.71 1150.5 1483.96 1146.42 1469.73 1138.25C1455.73 1130.08 1444.65 1119 1436.48 1105C1428.31 1091 1424.23 1075.37 1424.23 1058.1C1424.23 1040.83 1428.31 1025.2 1436.48 1011.2C1444.65 997.2 1455.73 986.117 1469.73 977.95C1483.96 969.55 1499.71 965.35 1516.98 965.35C1534.48 965.35 1550.23 969.55 1564.23 977.95C1578.23 986.117 1589.31 997.2 1597.48 1011.2C1605.65 1025.2 1609.73 1040.83 1609.73 1058.1C1609.73 1075.37 1605.65 1091 1597.48 1105C1589.31 1119 1578.23 1130.08 1564.23 1138.25C1550.23 1146.42 1534.48 1150.5 1516.98 1150.5ZM1516.98 1119.7C1527.95 1119.7 1537.86 1117.02 1546.73 1111.65C1555.6 1106.05 1562.6 1098.58 1567.73 1089.25C1572.86 1079.92 1575.43 1069.42 1575.43 1057.75C1575.43 1046.32 1572.75 1036.05 1567.38 1026.95C1562.25 1017.62 1555.25 1010.15 1546.38 1004.55C1537.75 998.95 1527.95 996.15 1516.98 996.15C1506.01 996.15 1496.1 998.95 1487.23 1004.55C1478.6 1010.15 1471.6 1017.62 1466.23 1026.95C1461.1 1036.05 1458.53 1046.32 1458.53 1057.75C1458.53 1069.42 1461.1 1079.92 1466.23 1089.25C1471.36 1098.58 1478.36 1106.05 1487.23 1111.65C1496.1 1117.02 1506.01 1119.7 1516.98 1119.7ZM1708.87 1150.15C1691.61 1150.15 1678.42 1146.18 1669.32 1138.25C1660.22 1130.08 1655.67 1118.3 1655.67 1102.9V998.25H1617.87V968.85H1655.67V923.35L1690.32 914.95V968.85H1742.82V998.25H1690.32V1094.85C1690.32 1103.95 1692.31 1110.48 1696.27 1114.45C1700.47 1118.18 1707.24 1120.05 1716.57 1120.05C1721.47 1120.05 1725.79 1119.7 1729.52 1119C1733.49 1118.3 1737.69 1117.25 1742.12 1115.85V1145.25C1737.46 1146.88 1731.97 1148.05 1725.67 1148.75C1719.61 1149.68 1714.01 1150.15 1708.87 1150.15Z" fill="#3781E3"/>
</svg>
